<?xml version="1.0" standalone="no"?>
<!DOCTYPE svg PUBLIC "-//W3C//DTD SVG 20010904//EN"
 "http://www.w3.org/TR/2001/REC-SVG-20010904/DTD/svg10.dtd">
<svg version="1.0" xmlns="http://www.w3.org/2000/svg"
 width="213.000000pt" height="236.000000pt" viewBox="0 0 213.000000 236.000000"
 preserveAspectRatio="xMidYMid meet">

<g transform="translate(0.000000,236.000000) scale(0.100000,-0.100000)"
fill="#000000" stroke="none">
<path d="M734 2090 c-192 -150 -364 -287 -381 -306 -45 -47 -46 -102 -3 -146
26 -25 37 -29 70 -26 l40 4 0 -237 0 -236 25 5 25 4 2 251 3 250 285 218 c157
120 291 216 298 214 7 -3 136 -100 287 -217 l275 -213 0 -225 1 -225 24 -18
25 -18 0 222 0 222 31 -7 c76 -15 143 57 119 128 -6 18 -25 46 -43 63 -40 37
-705 553 -722 559 -7 3 -169 -117 -361 -266z m712 -67 c196 -152 359 -285 364
-297 11 -29 -11 -60 -46 -64 -24 -2 -80 37 -344 243 -173 135 -320 245 -326
245 -6 0 -147 -104 -314 -231 -166 -126 -313 -237 -326 -245 -48 -32 -97 1
-79 51 7 18 127 118 360 300 193 151 351 274 353 275 2 0 163 -124 358 -277z"/>
<path d="M944 1827 c-2 -7 -3 -60 -2 -118 l3 -104 145 0 145 0 0 115 0 115
-143 3 c-112 2 -144 0 -148 -11z m126 -52 c0 -35 0 -35 -45 -35 -45 0 -45 0
-45 35 0 35 0 35 45 35 45 0 45 0 45 -35z m130 0 c0 -35 0 -35 -45 -35 -45 0
-45 0 -45 35 0 35 0 35 45 35 45 0 45 0 45 -35z m-130 -105 c0 -29 -2 -30 -45
-30 -43 0 -45 1 -45 30 0 29 2 30 45 30 43 0 45 -1 45 -30z m135 0 c0 -29 -1
-30 -47 -30 -47 0 -48 1 -48 30 0 29 1 30 48 30 46 0 47 -1 47 -30z"/>
<path d="M907 1424 c-10 -11 -8 -124 2 -124 28 0 41 14 41 46 l0 34 130 0 130
0 0 -33 c0 -26 6 -36 25 -45 l26 -12 -3 68 -3 67 -171 3 c-93 1 -173 -1 -177
-4z"/>
<path d="M1116 1200 c-59 -15 -110 -48 -150 -96 -31 -37 -41 -43 -65 -38 -39
8 -144 -21 -206 -56 -45 -26 -63 -30 -124 -30 -70 0 -73 1 -109 39 -32 34 -45
40 -95 46 -98 12 -278 2 -308 -19 -53 -34 -54 -50 -30 -369 24 -316 36 -379
78 -421 l27 -27 144 3 144 3 29 33 c16 18 29 41 29 52 0 17 7 20 49 20 l50 0
71 -125 c88 -154 109 -179 165 -200 49 -19 118 -15 151 9 13 10 26 11 42 5 56
-21 139 -4 171 35 10 12 24 14 50 10 37 -6 97 12 129 39 8 6 38 12 66 13 90 1
146 52 146 133 0 39 1 41 31 41 23 0 41 -10 66 -35 l34 -35 145 0 146 0 28 28
c16 16 33 46 38 68 6 21 23 172 38 335 32 343 32 348 -43 381 -39 17 -63 19
-193 16 -134 -3 -151 -5 -178 -25 l-29 -22 -114 77 c-63 41 -136 84 -164 95
-58 22 -200 31 -259 17z m235 -65 c24 -9 97 -50 161 -93 l118 -77 0 -308 0
-308 -46 3 -46 3 -139 250 c-76 137 -149 262 -162 277 -52 58 -103 47 -206
-44 -81 -71 -141 -103 -179 -93 -32 8 -62 33 -62 52 0 22 248 312 281 328 71
37 191 41 280 10z m-930 -146 c19 -19 20 -29 17 -340 l-3 -321 -28 -24 c-28
-23 -34 -24 -145 -22 l-116 3 -18 31 c-15 25 -23 92 -43 339 -23 280 -24 310
-10 331 15 24 18 24 170 24 143 0 157 -2 176 -21z m453 9 c-4 -7 -39 -50 -77
-96 l-70 -83 12 -39 c23 -77 117 -111 202 -72 24 11 76 47 114 81 73 64 107
81 134 64 24 -15 331 -571 331 -600 0 -13 -11 -35 -25 -49 -20 -20 -34 -25
-63 -22 -36 3 -38 5 -104 128 -47 88 -72 125 -85 125 -33 0 -25 -32 38 -150
l62 -118 -24 -17 c-24 -19 -62 -28 -90 -22 -9 1 -49 55 -89 118 -50 80 -77
114 -89 112 -30 -6 -22 -37 32 -121 85 -131 83 -124 45 -147 -41 -25 -89 -26
-117 -2 -12 9 -41 53 -64 96 -44 83 -53 92 -77 76 -13 -8 -8 -22 28 -95 23
-47 40 -90 37 -95 -11 -18 -63 -21 -102 -5 -43 17 -53 31 -164 222 l-60 103
-60 0 -59 0 0 270 0 270 90 0 c80 0 95 3 132 26 72 46 181 74 162 42z m1139 1
c23 -6 42 -19 48 -32 7 -15 1 -113 -20 -326 -25 -256 -32 -308 -49 -330 -19
-25 -23 -26 -142 -29 -104 -2 -126 0 -141 14 -18 16 -19 38 -19 351 l0 334 33
14 c39 17 234 20 290 4z"/>
<path d="M226 497 c-26 -19 -13 -57 20 -57 28 0 42 25 27 48 -13 22 -26 24
-47 9z"/>
<path d="M1850 495 c-20 -25 -8 -50 25 -50 21 0 31 5 33 18 4 21 -14 47 -33
47 -7 0 -18 -7 -25 -15z"/>
</g>
</svg>
